<?xml version="1.0" encoding="UTF-8"?>
<svg id="Layer_2" data-name="Layer 2" xmlns="http://www.w3.org/2000/svg" viewBox="0 0 66.36 64.28">
  <defs>
    <style>
      .cls-1 {
        fill: #004f79;
      }
    </style>
  </defs>
  <g id="Layer_1-2" data-name="Layer 1">
    <g>
      <path class="cls-1" d="M29.64,34.39c-12.51,0-16.43-4.1-17.65-6.54-1.24-2.48.59-8.43,1.57-11.63.21-.67.42-1.36.48-1.66-.08-.07-.18-.17-.31-.29C5.61,6.58,5.52,6.03,5.47,5.74c-.08-.48.49-1.45,1.69-2.87.57-.67,2.51-2.87,3.54-2.87.07,0,.14,0,.2.03,1.09.29.84,2.82.39,5.03,2.25.87,9.74,3.86,10.46,5.37.65,1.36.27,5.77.1,7.4.32-.03.67-.04,1.06-.04,1.29,0,2.71.16,3.67.3-1.58-2.07-2.26-3.66-2.1-4.85.13-.91.7-1.42,1.25-1.8.76-.53,3.2-3.68,4.31-5.17-.45-.56-1.33-1.81-1.13-2.78.09-.42.36-.74.78-.94.26-.12.57-.18.9-.18,1.87,0,4.54,2.05,4.61,4.07.06,1.97-4.22,6.79-5.46,8.14.56.6,1.9,1.93,3.01,2.21.56.14,1.15.41,1.71.68,1.09.51,2.26,1.01,3.18.66.15-.06.21-.11.22-.13-.02-.23-.62-.86-3.44-2.38-.26-.14-.59-.44-.7-1.07-.39-2.23,2.33-7.37,4.94-10.31C41.85.66,45.3.17,48.55.17h.12c.28.03,5.85.66,8.84,4.54,1.56,2.02,2.11,4.54,1.66,7.5-1.3,8.44-8.61,9.35-11.7,9.35h0c-.39,0-.72-.02-.95-.03-.56,2.15-3.88,12.54-15.25,12.84-.56.01-1.11.02-1.64.02ZM10.64.86c-.75.04-4.22,4.03-4.3,4.78.09.17,1.08,1.45,7.99,8,.26.25.43.41.46.44.26.26.2.46-.4,2.41-.88,2.86-2.71,8.82-1.63,10.98,1.13,2.26,4.82,6.05,16.86,6.05.52,0,1.06,0,1.62-.02,11.92-.32,14.48-12.4,14.5-12.52l.08-.4.41.05s.48.06,1.23.06c2.86,0,9.63-.84,10.83-8.6.42-2.71-.08-5-1.48-6.82-2.76-3.58-8.14-4.2-8.2-4.2h-.07c-2.84,0-6.12.3-9.23,3.79-2.65,2.98-5.04,7.81-4.73,9.57.06.34.21.42.25.45,2.57,1.38,3.95,2.31,3.89,3.23-.02.27-.17.64-.78.87-.32.12-.67.19-1.04.19-.98,0-1.92-.44-2.83-.87-.55-.26-1.07-.5-1.55-.62-1.7-.43-3.65-2.69-3.73-2.78l-.26-.3.27-.29c2.15-2.3,5.54-6.45,5.49-7.81-.05-1.52-2.27-3.22-3.73-3.22-.2,0-.38.03-.53.1-.22.1-.27.22-.29.32-.12.56.61,1.68,1.16,2.29l.24.27-.21.29c-.37.5-3.64,4.9-4.73,5.65-.47.32-.8.65-.88,1.19-.15,1.08.73,2.78,2.62,5.06l.77.93-1.19-.22s-2.55-.46-4.64-.46c-.59,0-1.08.04-1.48.11l-.59.11.07-.59c.2-1.69.59-6.33.04-7.48-.45-.94-6.31-3.52-10.33-5.06l-.35-.13.08-.37c.44-2.05.57-4.1.28-4.39Z"/>
      <path class="cls-1" d="M39.12,45.18h-.88c0-2.46,2.86-6.6,5.1-7.37,8.18-2.83,15.24-7.15,17.56-8.57.7-.43.83-.51.94-.54.13-.04.47-.09.77.36.63.94.86,3.34-1.23,5.76-2.54,2.94-7.59,5.29-7.81,5.39l-.37-.8c.05-.02,5.09-2.37,7.51-5.17,1.86-2.15,1.52-4.05,1.22-4.61-.13.08-.33.2-.58.36-2.34,1.43-9.46,5.79-17.73,8.65-1.74.6-4.51,4.28-4.51,6.54Z"/>
      <path class="cls-1" d="M61.99,22l-.88-.05c.34-6.33.4-16.78-.88-17.87-.24-.2-.37-.15-.41-.13-.37.16-.84,1.13-.98,3.34l-.88-.05c.15-2.35.66-3.73,1.51-4.1.43-.18.9-.09,1.32.27,1.99,1.69,1.34,15.78,1.19,18.59Z"/>
      <path class="cls-1" d="M56.52,27.74l-.81-.34c1.02-2.46,1.73-12.18,1.73-12.28l.88.06c-.03.41-.73,9.96-1.8,12.55Z"/>
      <path class="cls-1" d="M51.85,28.19l-.8-.37c1.02-2.22,2.29-8.21,2.3-8.27l.86.18c-.05.25-1.3,6.15-2.37,8.46Z"/>
      <path class="cls-1" d="M47.6,64.28h-11.73l-.08-.35c-.02-.07-1.61-7.56-.53-14.7,1.19-7.88,4.41-13.88,9.28-17.36,2.02-1.44,4.08-8.44,4.7-11.02l.85.21c-.09.39-2.35,9.61-5.05,11.53-4.68,3.33-7.77,9.13-8.93,16.77-.93,6.11.16,12.5.45,14.03h9.93c-.41-2.17-1.59-10.14,2.59-12.11l.79-.37c4.96-2.3,14.21-6.57,14.94-17.01,1.23-17.52.49-22.27-.34-23.17-.09-.09-.12-.09-.15-.09-1.12,0-1.51,3.65-1.99,8.28-.28,2.69-.63,6.03-1.22,9.67l-.87-.14c.59-3.61.94-6.94,1.22-9.62.61-5.84.95-9.07,2.87-9.07.2.02.51.06.79.37.9.96,1.93,4.48.57,23.83-.77,10.96-10.68,15.54-15.45,17.74l-.79.36c-4.12,1.94-2.02,11.56-2,11.66l.12.54Z"/>
      <path class="cls-1" d="M27.16,45.25c-.62-3.49-3.01-6.13-4.42-6.62-8.27-2.86-15.39-7.22-17.73-8.65-.25-.15-.44-.27-.58-.35-.3.56-.64,2.46,1.22,4.61,2.42,2.8,7.46,5.15,7.51,5.17l-.37.8c-.21-.1-5.27-2.45-7.81-5.39-2.09-2.42-1.86-4.81-1.23-5.76.31-.46.64-.41.77-.36.11.04.24.11.94.54,2.32,1.42,9.38,5.74,17.56,8.57,1.65.57,4.31,3.43,5,7.3l-.87.15Z"/>
      <path class="cls-1" d="M4.37,22c-.15-2.81-.8-16.9,1.19-18.59.58-.49,1.26-.48,1.76.04l-.63.62c-.13-.13-.27-.23-.57.01-1.28,1.09-1.22,11.54-.88,17.87l-.88.05Z"/>
      <path class="cls-1" d="M9.84,27.74c-1.07-2.59-2.05-18.75-2.09-19.43l.88-.05c.35,5.76,1.22,17.19,2.03,19.15l-.81.34Z"/>
      <path class="cls-1" d="M12.31,20.87c-.81-2.83-1.59-9.56-1.62-9.84l.87-.1c0,.07.81,6.95,1.6,9.7l-.85.24Z"/>
      <path class="cls-1" d="M29.5,64.28h-11.75l.18-.57c.03-.1,3.04-9.69-1.05-11.62l-.78-.36c-4.76-2.2-14.68-6.79-15.45-17.74C-.7,14.63.33,11.12,1.23,10.15c.29-.31.59-.4.79-.37,1.92,0,2.25,3.22,2.87,9.07.28,2.68.63,6.01,1.22,9.62l-.87.14c-.59-3.63-.94-6.98-1.22-9.67-.49-4.62-.87-8.28-1.99-8.28-.03-.02-.06,0-.15.09-.83.9-1.57,5.64-.34,23.17.73,10.44,9.97,14.71,14.94,17.01l.79.37c4.19,1.97,2.31,9.88,1.68,12.11h9.92c.44-1.46,2.25-7.99,1.38-14.04-.98-6.81-3.46-12.03-7.36-15.52l.59-.66c4.06,3.63,6.63,9.03,7.65,16.05,1.01,7.04-1.4,14.43-1.51,14.74l-.1.3Z"/>
    </g>
  </g>
</svg>