<?xml version="1.0" encoding="UTF-8"?>
<svg id="Layer_2" data-name="Layer 2" xmlns="http://www.w3.org/2000/svg" viewBox="0 0 37.81 67.11">
  <defs>
    <style>
      .cls-1 {
        fill: #004f79;
      }
    </style>
  </defs>
  <g id="Layer_1-2" data-name="Layer 1">
    <path class="cls-1" d="M37.66,67.11l-28.17-.13.15-.54s.44-1.58,1.07-3.71c-.31-.66-.46-1.44-.44-2.3v-.19c.07-2.31.13-4.3-1.79-6.62l-.75-.9C3.65,47.9-.1,43.12,0,40.82c.14-2.93,9.82-16.08,11.09-17.34.22-.22.56-.52.97-.89,1.65-1.47,4.68-4.18,5.68-6.7-2.2-2.46-3.49-5.7-3.48-8.7,0-.59.08-1.18.23-1.76-.12-.08-.24-.17-.39-.27-.3-.21-.67-.48-.91-.58-.53-.2-.56-.08-.59-.04-.29.31-.21,1.56-.13,2.77.15,2.28.35,5.41-1.21,7.7-2.46,3.62-6.42,3.73-6.86,3.73h-1.61l1.38-.8c.19-.11,4.59-2.68,3.29-8.36-.79-3.43-.52-6.2.75-7.8.84-1.05,2.06-1.54,3.49-1.37,1.78.21,3.11,1.38,3.99,2.49,1.36-1.83,3.48-2.9,5.78-2.9,1.97,0,3.78.77,5.13,2.14,1.36,1.37,2.1,3.19,2.09,5.12,0,.23-.01.45-.04.67.09.13.18.28.28.43.8,1.23,1.79,2.77,1.51,3.86-.1.37-.33.67-.69.86-.46.25-.54,1.07-.62,1.94-.11,1.13-.24,2.41-1.21,3.17-.87.67-2.02.76-3.03.76-.31,0-.63-.01-.95-.02-.28,0-.55-.02-.82-.02-.26,0-.54-.03-.84-.1-1.12,3.09-1.3,4.62-1.08,5.03.49.91,5.65,5.12,8.13,7.14,1.24,1.01,1.9,1.55,2.06,1.71.38.38.56,1.31.45,2.31-.14,1.2-.82,3.46-3.74,5.52,2.17,1.33,9.44,6.25,9.61,12.54.19,7.02-.06,13.56-.07,13.63l-.02.41ZM10.62,66.13l26.22.12c.05-1.54.21-7.18.05-13.16-.18-6.76-9.68-12.12-9.77-12.17l-.63-.35.61-.38c3.1-1.95,3.79-4.12,3.92-5.25.12-.96-.11-1.55-.2-1.65-.14-.14-1-.84-1.99-1.65-3.94-3.2-7.82-6.41-8.35-7.39-.16-.3-.65-1.22,1.16-6.09l.14-.36.38.1c.39.1.71.16,1,.16.28,0,.56.01.84.02.31,0,.62.02.92.02.86,0,1.84-.07,2.51-.58.68-.53.78-1.57.88-2.57.1-1.06.21-2.15,1.07-2.61.15-.08.23-.18.27-.32.19-.73-.77-2.21-1.4-3.18-.13-.2-.25-.39-.36-.57l-.08-.13.02-.15c.03-.24.05-.48.05-.73,0-1.7-.65-3.31-1.85-4.52-1.2-1.21-2.8-1.88-4.5-1.89-2.24,0-4.26,1.12-5.43,3.01l-.34.55-.37-.53c-.76-1.08-2.03-2.42-3.76-2.62-1.12-.13-2.08.24-2.73,1.06-1.1,1.39-1.31,3.9-.59,7.07.97,4.25-1.02,6.97-2.44,8.31,1.34-.3,3.3-1.09,4.71-3.17,1.39-2.05,1.21-4.89,1.06-7.17-.11-1.64-.18-2.83.36-3.41.34-.36.85-.43,1.52-.17.34.13.74.42,1.1.68.21.15.45.33.55.37l.36.15-.11.37c-.18.6-.28,1.22-.28,1.84-.01,2.83,1.3,6.01,3.43,8.31l.17.19-.08.24c-.97,2.8-4.13,5.61-6.01,7.29-.4.35-.73.65-.94.86-1.54,1.52-10.72,14.31-10.83,16.78-.11,2.28,5.24,8.61,7.53,11.31l.76.9c2.13,2.56,2.07,4.81,2,7.19v.19c-.03.79.11,1.47.41,2.04l.08.15-.05.17c-.43,1.45-.78,2.66-.96,3.32ZM13.52,56.53l-.47-.78c-.43-.71-2.63-4.39-3.71-7.11-1.16-2.93-3.57-6.53-3.6-6.56l-.18-.26,4.72-5.76.24.75c.32,1.02.88,2.39,1.47,3.84,1.75,4.3,3.92,9.65,2.83,12.28-.28.67-.62,1.6-1.01,2.75l-.29.87ZM6.62,41.86c.59.9,2.48,3.88,3.51,6.46.83,2.11,2.37,4.81,3.18,6.2.27-.78.52-1.42.73-1.93.96-2.31-1.24-7.7-2.84-11.64-.46-1.14-.91-2.24-1.24-3.16l-3.33,4.07Z"/>
  </g>
</svg>