<?xml version="1.0" encoding="UTF-8"?>
<svg id="Layer_2" data-name="Layer 2" xmlns="http://www.w3.org/2000/svg" viewBox="0 0 52.81 74.69">
  <defs>
    <style>
      .cls-1 {
        fill: #004f79;
      }
    </style>
  </defs>
  <g id="Layer_1-2" data-name="Layer 1">
    <g>
      <path class="cls-1" d="M11.53,66.19c-.12,0-.23-.02-.32-.06-.16-.06-.29-.19-.35-.34-.3-.72.3-7.58,1.07-8.7.21-.31.48-.34.6-.34.28,0,1.1.04,1.29,3.16,2.73-1.83,5.83-3.53,6.65-2.51.36.44.86,1.2,1.49,2.24l-.86.52c-.6-.99-1.09-1.72-1.42-2.13-.49-.14-3.29,1.3-6.05,3.21l-.77.53-.02-.94c-.02-1.04-.14-2.1-.3-2.69-.43,1.52-.82,5.74-.78,7,.54-.14,1.66-.64,2.31-.93l.7-.31.4.92-.68.3c-1.64.73-2.45,1.05-2.95,1.05Z"/>
      <path class="cls-1" d="M23.75,58.94c-.38-1.07.24-1.74.47-2,.34-.37,1.27-2.36,1.88-3.74-.43-.35-1.07-1-1.09-1.67,0-.24.07-.6.44-.89.52-.4,1.38-.46,2.3-.15.86.29,1.88.95,2.14,1.92.31,1.14-1.05,3.93-2.24,6.07l-.88-.49c1.42-2.56,2.3-4.75,2.15-5.33-.13-.47-.74-.98-1.49-1.23-.57-.19-1.12-.2-1.36,0-.05.32.47.87.94,1.2l.33.23-.16.38c-.27.61-1.62,3.72-2.22,4.37-.3.32-.42.57-.27.99l-.95.33Z"/>
      <path class="cls-1" d="M40.52,60.33l-.29-.96c1.95-.6,5.18-2.26,4.84-6.72-.13-1.73-.77-3.08-1.89-3.99-2.23-1.82-5.66-1.42-5.7-1.42-1.75.4-3.79,1.06-5.22,3.7-1.33,2.46-1.99,5.7-1.59,6.63.03.08.07.12.09.13.65.18,1.54.42,2.18.72l-.43.91c-.56-.26-1.43-.5-2.01-.66-.23-.06-.55-.23-.75-.7-.62-1.44.35-5.15,1.63-7.51,1.55-2.86,3.77-3.71,5.92-4.2.21-.03,3.95-.47,6.51,1.62,1.34,1.1,2.1,2.68,2.25,4.69.39,5.15-3.3,7.07-5.54,7.75Z"/>
      <path class="cls-1" d="M15.22,74.69c-.14,0-.36-.05-.54-.31-.71-1.06-1.39-8.35.12-10.79,1.55-2.5,10.02-5.61,10.99-5.95l.11-.04.12.02c.74.09,18.14,2.14,19.09,2.36l-.23.98c-.74-.17-13.75-1.73-18.86-2.33-2.6.95-9.22,3.66-10.36,5.5-1.12,1.81-.74,7.27-.33,9.13.11-.37.24-.92.3-1.44.06-1.08.39-4.73,2.13-4.82,5.19-.28,7.46-3.53,7.48-3.56l.17-.24.29.03c1.47.13,5.53,1.89,10.23,3.93,5.03,2.19,14.4,6.26,15.34,5.38,1.38-1.51-.16-9.82-1.28-15.88-.54-2.92-1.05-5.68-1.23-7.52-.82-8.44-1.31-9.07-3.46-10.66-.94-.69-3.32-.52-5.61-.36-2.1.15-4.27.31-5.8-.13-3.59-1.03-2.05-7.97-1.98-8.26l.98.22c-.4,1.75-.95,6.44,1.28,7.07,1.36.39,3.44.24,5.45.09,2.59-.19,5.04-.36,6.28.55,2.52,1.86,3.03,2.87,3.86,11.37.18,1.8.68,4.54,1.22,7.43,1.61,8.7,2.63,15,1.03,16.75-1.15,1.25-5.8-.49-16.48-5.13-4.16-1.81-8.11-3.53-9.65-3.82-.68.85-3.18,3.48-8.06,3.74-.56.03-1.09,2.09-1.19,3.91-.15,1.22-.5,2.65-1.31,2.78-.02,0-.06,0-.09,0Z"/>
      <path class="cls-1" d="M14.66,73.35c-7.49-1.27-14.18-5.84-14.62-7.01-.21-.57.42-3.64,4.59-19.59.55-2.09.96-3.67,1.1-4.24.38-1.61,3.82-2.62,8.63-3.87,1.9-.49,4.27-1.11,4.62-1.49.62-.68.71-5.48.43-9.72l1-.06c.1,1.51.53,9.12-.69,10.46-.52.58-2.2,1.03-5.11,1.79-2.85.74-7.63,1.98-7.91,3.13-.14.57-.55,2.16-1.1,4.26-1.53,5.84-4.71,17.98-4.61,19.05.33.62,6.41,5.06,13.83,6.31l-.17.99Z"/>
      <path class="cls-1" d="M9.34,36.07l.39-1.06c1.92-5.17.51-9.95-2.61-19.41-.84-2.56-.72-4.62.37-6.12,1.99-2.75,6.59-2.71,8.01-2.63C16.91,2.13,21.86-.62,27.84.12c5.79.72,11.56,5.56,10.88,13.1-.69,7.54-2.69,13.23-5.94,16.93-1.2,1.37-2.88,2.93-5.17,2.93h0c-2.41,0-5.05-1.75-8.07-5.36-3.29-3.93-4.86-8.5-4.79-13.95-1.22,1.87-.39,4.92.49,8.11.75,2.76,1.53,5.61,1.09,8.03-.65,3.61-5.71,5.66-5.93,5.75l-1.05.42ZM14.61,7.82c-1.75,0-4.89.29-6.31,2.24-.89,1.23-.97,2.99-.23,5.22,2.89,8.78,4.41,13.87,2.97,18.95,1.43-.75,3.9-2.34,4.29-4.51.4-2.2-.35-4.94-1.07-7.59-1.07-3.92-2.18-7.98.74-10.06l.85-.61-.06,1.05c-.34,5.76,1.14,10.52,4.51,14.56,2.82,3.37,5.21,5,7.31,5h0c1.47,0,2.84-.8,4.42-2.59,3.12-3.53,5.03-9.03,5.7-16.35.63-6.92-4.68-11.35-10-12.01-5.72-.71-10.23,1.87-11.35,6.4l-.38,1.53-.47-1.19c-.21-.01-.53-.03-.91-.03Z"/>
    </g>
  </g>
</svg>