<?xml version="1.0" encoding="UTF-8"?>
<svg id="Layer_1" data-name="Layer 1" xmlns="http://www.w3.org/2000/svg" viewBox="0 0 95 108.41">
  <defs>
    <style>
      .cls-1 {
        fill: #004f79;
      }
    </style>
  </defs>
  <path class="cls-1" d="M45.14,73.25l-1.43-3.94-3.43-10.86-.32-1.41c-3.07,1.58-4.77,3.06-5.97,6.31-.41,1.13-.6,2.16-.44,3.36.05.35-.05.48.28.51,1.69.19,3.09,1.43,3.58,3.04.22.73.48,2.23.39,3-.12,1.08-.94,2.23-2.06,2.36-.45.05-1.04.05-1.4-.26-.43-.36-.48-1-.08-1.41.44-.46,1.01-.31,1.58-.33.46-.38.08-2.13-.07-2.64-.76-2.42-3.54-2.76-4.73-.39-.25.51-.87,2.53-.71,3.03.26.09.7.03.99.03,1.72,0,.96,2.91-1.54,1.75-1.53-.71-1.38-2.33-1.04-3.66.48-1.83,1.21-3.6,3.15-4.3l-.13-.66c-.3-2.34.6-5.14,2.04-7-.54.22-1.1.38-1.66.54-4.09,1.23-5.7,3.15-7.2,6.9l-.62,1.58-.85,2.82c-.4,1.51-.75,3.06-.96,4.6l-.36,3.85c0,.16,0,.33-.04.48l-.03.12c-.19.68-1.26.75-1.6.06-.15-.3-.1-.69-.09-1.02l.37-3.98c.32-2.25.87-4.52,1.59-6.68,1.83-5.44,3.37-8.51,8.89-10.37l3.17-.99c.55-.17,1.12-.31,1.66-.53,1.33-.53,2.5-1.49,3.78-2.13-.08-.93.17-2.58-.23-3.3l-.91-1.78-.49-1.23c-.37-1.03-.26-.58-.8-1.26-1.47-1.87-3.51-8.55.38-8.02l-1.06-6.57c-.17-1.88.53-2.1,2.01-3.01,2.54-1.57,5.1-2.55,8.12-2.77,3.48-.21,6.68,1.1,9.56,2.94,2.18,1.4,1.91,1.59,1.58,3.89l-.73,4.65c-.23,1.41-.21.54.79.89h.04c1.1.4,1.26,1.55,1.25,2.55,0,1.61-.47,3.01-1.18,4.45-.31.64-.49,1.16-1.19,1.44-.42.17-.41,1.08-.58,1.59-.27.81-.72,1.7-1.19,2.41-.19.29-.12.58-.11.92v1.71c0,.14-.1.42.05.49,1.42.66,2.57,1.69,4.14,2.3.73.28,1.5.47,2.25.69l2.59.8c5.1,1.84,6.85,5.33,8.41,10.23.97,3.04,1.71,6.23,1.93,9.43l.07,1.4c0,.23.04.5,0,.73-.13.79-1.25.79-1.62.18l-.02-.03c-.13-.21-.12-.53-.13-.76l-.04-1c-.28-3.34-.95-6.59-2.02-9.76l-.77-2.15c-1.32-3.25-2.81-5.18-6.1-6.43-.89-.34-1.83-.55-2.71-.92.4.62.82,1.17,1.09,1.86.77,1.96.28,5.37.06,7.42,3.88,1.41,3.33,7.2-.84,7.78-1.11.15-2.2-.2-3.08-.87-2.8-2.15-1.36-6.7,2.1-7.16l.19-1.56c.1-.88.16-1.78.16-2.67,0-4.47-2.7-5.44-5.84-7.58l-.5,2.2-4.1,12.67-1.47,3.62c-.45,1.04-.56.83-.56,2v2.12c0,.33.04.75-.04,1.07-.18.73-1.24.96-1.6.23-.24-.48-.16-1.2-.16-1.72v-1.74c0-.33.04-.75-.12-1.04l-1.33-3.11ZM47.38,28.87c-3.12.12-6.44,1.46-8.87,3.41l.54,4c.93,0,1.84.02,2.75.25,2,.5,3.76,1.64,5.88,1.62,2.82-.06,4.93-2.04,8.21-1.87l.56-4.05c-2.18-1.86-6.29-3.48-9.07-3.36h0ZM39.52,38.07c.16,1.06.94,5.55-.37,5.72-1.47.19-.82-2.07-1.26-2.55-.6-.27-.48.57-.47.93.03,1.17.33,2.46.95,3.47l.08.12c.75.08.93.25,1.07.97.36,1.79,1.25,3.59,2.34,5.04.96,1.28,3.38,3.45,4.98,3.69,2.5.38,5.08-2.1,6.46-3.95.8-1.11,1.47-2.37,1.87-3.68.16-.53.25-1.92.95-2.05l.48-.03c.48-.86.77-1.78.95-2.75.05-.27.13-1.44-.02-1.62-.1-.12-.31-.14-.45-.14-.31.29,0,1.85-.69,2.49-.35.32-.74.13-1.01-.2-.36-.44-.25-1.04-.24-1.56v-1.27c.03-.45.1-.91.16-1.37l.16-1.23c-2.39.08-3.52.91-5.67,1.53-1.89.55-3.47.36-5.28-.25l-2.38-.86c-.86-.27-1.7-.43-2.6-.44h0ZM41.57,54.06l.08,1.88c0,.38.02.34.29.59l1.32,1.2c3.41,2.86,5.97,2.5,9.19-.65.27-.27.56-.54.8-.83.09-.12.06-.17.06-.32l.08-1.83c-3.73,3.95-7.15,4.47-11.2.6l-.62-.63ZM42.26,59.18l5.25,15.14,1.98-5.42,3.17-9.63c-3.67,2.94-6.84,3.1-10.41-.09h0ZM60.78,70.68c-2.89.36-2.61,4.38.37,4.31,2.93-.43,2.33-4.53-.37-4.31Z"/>
  <path class="cls-1" d="M47.73,36.52c-.21.03-.39.01-.59-.07-.93-.41-.4-1.51-.57-1.92h-1.08c-.23,0-.49.02-.71-.06l-.04-.02c-.59-.24-.64-1.1-.22-1.52.33-.33.73-.27,1.15-.27h.9c.02-.75-.2-1.7.7-2h.14c1.17-.06,1.04,1.15,1.05,1.99.13.02.29,0,.43,0h.8c1.11,0,1.37,1.06.83,1.64-.32.34-.9.24-1.32.23h-.74c0,.74.16,1.71-.73,1.99Z"/>
</svg>