<?xml version="1.0" encoding="UTF-8"?>
<svg id="Layer_1" data-name="Layer 1" xmlns="http://www.w3.org/2000/svg" viewBox="0 0 95 108.41">
  <defs>
    <style>
      .cls-1 {
        fill: #004f79;
      }
    </style>
  </defs>
  <path class="cls-1" d="M50.33,23.06c7.39.73,13.91,6.62,14.51,14.19.11,1.43-.21,3.32,0,4.66.09.55.69,1.17.77,1.95.2,1.82-.94,3.33-2.5,4.11-.33.17-.93.18-1.12.44-.26.52-.07,1.11-.15,1.66-.6,4.19-3.06,7.88-6.83,9.82v1.58c.05.15,2.39,1.7,2.7,1.83,3.73,1.61,9.98,1.51,11.85,5.77.33.75.98,3.44.98,4.21,0,1.3-1.51,1.42-1.92.22-.75-2.2-.22-4.39-2.84-5.71-1.13-.57-6.39-2.17-7.64-2.34-.14-.02-.28-.04-.42,0-.28.2-1.43,4.7-2.09,5.49-.36.43-1.16.76-1.71.68l-4.12-1.53v8.49c0,.83-1.94.83-1.94,0v-8.36c-1.93.41-4.49,2.77-5.76.13-.72-1.5-1.15-3.47-1.75-5.05-2.3.88-4.98,1.27-7.25,2.14-1.75.67-2.61,1.55-3.13,3.35-1.36,4.67-1.77,10.14-2.94,14.92-.03.81.6,1.75,1.46,1.75h5.51v-9.39c0-.47.94-.87,1.42-.65.07.03.52.48.52.52v9.52h3.82s.43.3.46.35c.39.57.13,1.47-.6,1.58-3.55-.22-7.5.32-11,0-2.86-.26-3.73-2.21-3.4-4.82.51-4.06,1.74-9.83,2.75-13.83,1.61-6.39,7.56-5.36,12.47-7.49.28-.12,2.37-1.49,2.5-1.65.07-.08.13-.14.13-.26l-.03-1.46c-4.27-2.21-6.95-6.71-6.86-11.54-2.16-.4-4.09-2.36-3.68-4.69.12-.67.64-1.19.71-1.62.21-1.14-.08-3.01,0-4.27.06-1,.85-5.25,1.72-5.66.63-.3,1.37.02,1.4.75.03.65-.53,1.69-.72,2.39-.45,1.74-.49,3.51-.45,5.31,1.57-.19,2.65-.33,3.34-1.91.48-1.1.24-2.34.88-3.27,1.22-1.79,3.29-.93,5.05-.79,2.75.23,5.4.34,8.16.13,1.61-.12,4.18-.96,5.51.06,1.63,1.26.66,3.3,2.13,4.87.74.79,1.66.67,2.66.9v-3.3c0-1.54-1.37-4.74-2.25-6.04-4.76-7.02-14.43-8.16-20.87-2.7-.67.57-1.66,2.22-2.6,1.3s.88-2.38,1.56-2.98c2.36-2.05,5.73-3.52,8.87-3.76h2.72ZM41.49,36.16c-.81.14-.71,1.82-.94,2.57-.38,1.24-1.19,2.33-2.28,3.03l-.12.27c.19,3.82-.66,7.7,1.05,11.25,3.38,7.03,13,8.26,18.12,2.35,3.41-3.94,2.66-8.6,2.72-13.47-.08-.4-1.01-.97-1.36-1.36-.6-.68-1.1-1.7-1.3-2.59-.17-.74.14-1.9-.91-2.08-4.98.73-10.02.8-14.99.02ZM36.21,42.36c-2.34.53-2.39,3.44,0,3.89v-3.89ZM61.99,46.25c2.22-.65,2.22-3.2,0-3.89v3.89ZM53.05,60.76c-2.66.83-5.37.77-8.03,0l.15,1.21,3.67,5.13,4.09-5.24.12-1.11ZM47.22,68.4l-.07-.39-3.37-4.66-1.6,1.06,1.66,5.16,3.37-1.17ZM54.21,69.56l1.8-4.99-1.73-1.2-3.82,4.83,3.75,1.36Z"/>
  <path class="cls-1" d="M62.12,87.44v-9.39c0-.06.36-.54.44-.59.55-.33,1.5.07,1.5.59v9.39h5.51s.84-.32.91-.38c.54-.43.49-1.51.43-2.13-.21-2.3-1.11-4.83-1.41-7.15.15-1.16,1.48-1.36,1.91-.22s1.54,6.85,1.54,8.02c0,2.3-1.4,3.63-3.64,3.8h-25.27c-.73-.06-1.23-.72-.9-1.43.05-.12.56-.52.65-.52h18.33Z"/>
</svg>